<mxfile host="app.diagrams.net" agent="Mozilla/5.0 (Windows NT 10.0; Win64; x64) AppleWebKit/537.36 (KHTML, like Gecko) Chrome/134.0.0.0 Safari/537.36 Edg/134.0.0.0" version="26.0.15">
  <diagram id="R2lEEEUBdFMjLlhIrx00" name="Page-1">
    <mxGraphModel dx="2934" dy="1130" grid="1" gridSize="10" guides="1" tooltips="1" connect="1" arrows="1" fold="1" page="1" pageScale="1" pageWidth="850" pageHeight="1100" math="0" shadow="0" extFonts="Permanent Marker^https://fonts.googleapis.com/css?family=Permanent+Marker">
      <root>
        <mxCell id="0" />
        <mxCell id="1" parent="0" />
        <mxCell id="R9u5_vUlYLdxGOXweft--1" value="Lecturer" style="rounded=0;whiteSpace=wrap;html=1;" vertex="1" parent="1">
          <mxGeometry x="260" y="467.5" width="120" height="32.5" as="geometry" />
        </mxCell>
        <mxCell id="R9u5_vUlYLdxGOXweft--3" value="Course" style="rounded=0;whiteSpace=wrap;html=1;" vertex="1" parent="1">
          <mxGeometry x="640" y="470" width="120" height="30" as="geometry" />
        </mxCell>
        <mxCell id="R9u5_vUlYLdxGOXweft--4" value="Student" style="rounded=0;whiteSpace=wrap;html=1;" vertex="1" parent="1">
          <mxGeometry x="563" y="770" width="130" height="40" as="geometry" />
        </mxCell>
        <mxCell id="R9u5_vUlYLdxGOXweft--5" value="Activity" style="rounded=0;whiteSpace=wrap;html=1;" vertex="1" parent="1">
          <mxGeometry x="610" y="220" width="120" height="40" as="geometry" />
        </mxCell>
        <mxCell id="R9u5_vUlYLdxGOXweft--6" value="Account&amp;nbsp;" style="rounded=0;whiteSpace=wrap;html=1;" vertex="1" parent="1">
          <mxGeometry x="-210" y="595" width="80" height="20" as="geometry" />
        </mxCell>
        <mxCell id="R9u5_vUlYLdxGOXweft--7" value="&lt;b&gt;&lt;u&gt;account_id&lt;/u&gt;&lt;/b&gt;" style="ellipse;whiteSpace=wrap;html=1;" vertex="1" parent="1">
          <mxGeometry x="-210" y="655" width="70" height="10" as="geometry" />
        </mxCell>
        <mxCell id="R9u5_vUlYLdxGOXweft--9" value="department" style="ellipse;whiteSpace=wrap;html=1;" vertex="1" parent="1">
          <mxGeometry x="-300" y="630" width="70" height="20" as="geometry" />
        </mxCell>
        <mxCell id="R9u5_vUlYLdxGOXweft--8" value="phone_number" style="ellipse;whiteSpace=wrap;html=1;" vertex="1" parent="1">
          <mxGeometry x="-310" y="565" width="90" height="20" as="geometry" />
        </mxCell>
        <mxCell id="R9u5_vUlYLdxGOXweft--19" value="" style="endArrow=none;html=1;rounded=0;exitX=0.5;exitY=0;exitDx=0;exitDy=0;entryX=0;entryY=1;entryDx=0;entryDy=0;" edge="1" parent="1" source="R9u5_vUlYLdxGOXweft--9" target="R9u5_vUlYLdxGOXweft--6">
          <mxGeometry width="50" height="50" relative="1" as="geometry">
            <mxPoint x="30" y="372" as="sourcePoint" />
            <mxPoint x="-200" y="585" as="targetPoint" />
            <Array as="points" />
          </mxGeometry>
        </mxCell>
        <mxCell id="R9u5_vUlYLdxGOXweft--26" value="has" style="rhombus;whiteSpace=wrap;html=1;" vertex="1" parent="1">
          <mxGeometry x="-15" y="690" width="65" height="20" as="geometry" />
        </mxCell>
        <mxCell id="R9u5_vUlYLdxGOXweft--27" value="" style="endArrow=ERone;html=1;rounded=0;entryX=0;entryY=0.5;entryDx=0;entryDy=0;exitX=1;exitY=0.5;exitDx=0;exitDy=0;endFill=0;" edge="1" parent="1" source="R9u5_vUlYLdxGOXweft--127" target="R9u5_vUlYLdxGOXweft--4">
          <mxGeometry width="50" height="50" relative="1" as="geometry">
            <mxPoint x="475" y="679.5" as="sourcePoint" />
            <mxPoint x="607" y="679.5" as="targetPoint" />
          </mxGeometry>
        </mxCell>
        <mxCell id="R9u5_vUlYLdxGOXweft--31" value="user_id" style="ellipse;whiteSpace=wrap;html=1;" vertex="1" parent="1">
          <mxGeometry x="503" y="835" width="80" height="30" as="geometry" />
        </mxCell>
        <mxCell id="R9u5_vUlYLdxGOXweft--32" value="user_id" style="ellipse;whiteSpace=wrap;html=1;" vertex="1" parent="1">
          <mxGeometry x="60" y="467.5" width="60" height="25" as="geometry" />
        </mxCell>
        <mxCell id="R9u5_vUlYLdxGOXweft--33" value="&lt;u&gt;&lt;b&gt;lecturer_id&lt;/b&gt;&lt;/u&gt;" style="ellipse;whiteSpace=wrap;html=1;" vertex="1" parent="1">
          <mxGeometry x="50" y="533" width="70" height="17.5" as="geometry" />
        </mxCell>
        <mxCell id="R9u5_vUlYLdxGOXweft--35" value="&lt;b&gt;&lt;u&gt;student_id&lt;/u&gt;&lt;/b&gt;" style="ellipse;whiteSpace=wrap;html=1;" vertex="1" parent="1">
          <mxGeometry x="633" y="830" width="70" height="20" as="geometry" />
        </mxCell>
        <mxCell id="R9u5_vUlYLdxGOXweft--43" value="" style="endArrow=ERone;html=1;rounded=0;entryX=1;entryY=0.75;entryDx=0;entryDy=0;exitX=0.5;exitY=0;exitDx=0;exitDy=0;endFill=0;" edge="1" parent="1" source="R9u5_vUlYLdxGOXweft--26" target="R9u5_vUlYLdxGOXweft--6">
          <mxGeometry width="50" height="50" relative="1" as="geometry">
            <mxPoint x="-10" y="695" as="sourcePoint" />
            <mxPoint x="110" y="550" as="targetPoint" />
          </mxGeometry>
        </mxCell>
        <mxCell id="R9u5_vUlYLdxGOXweft--56" value="" style="endArrow=ERone;html=1;rounded=0;exitX=0;exitY=0.5;exitDx=0;exitDy=0;entryX=1;entryY=0.5;entryDx=0;entryDy=0;startArrow=none;startFill=0;endFill=0;" edge="1" parent="1" source="R9u5_vUlYLdxGOXweft--53" target="R9u5_vUlYLdxGOXweft--1">
          <mxGeometry width="50" height="50" relative="1" as="geometry">
            <mxPoint x="415" y="625" as="sourcePoint" />
            <mxPoint x="393" y="585" as="targetPoint" />
            <Array as="points" />
          </mxGeometry>
        </mxCell>
        <mxCell id="R9u5_vUlYLdxGOXweft--57" value="" style="endArrow=ERmany;html=1;rounded=0;entryX=0;entryY=0.25;entryDx=0;entryDy=0;exitX=1;exitY=0.5;exitDx=0;exitDy=0;endFill=0;" edge="1" parent="1" source="R9u5_vUlYLdxGOXweft--53" target="R9u5_vUlYLdxGOXweft--3">
          <mxGeometry width="50" height="50" relative="1" as="geometry">
            <mxPoint x="500" y="484" as="sourcePoint" />
            <mxPoint x="543" y="480" as="targetPoint" />
            <Array as="points" />
          </mxGeometry>
        </mxCell>
        <mxCell id="R9u5_vUlYLdxGOXweft--58" style="edgeStyle=orthogonalEdgeStyle;rounded=0;orthogonalLoop=1;jettySize=auto;html=1;exitX=0.5;exitY=1;exitDx=0;exitDy=0;" edge="1" parent="1">
          <mxGeometry relative="1" as="geometry">
            <mxPoint x="1030" y="790" as="sourcePoint" />
            <mxPoint x="1030" y="790" as="targetPoint" />
          </mxGeometry>
        </mxCell>
        <mxCell id="R9u5_vUlYLdxGOXweft--62" value="end_time" style="ellipse;whiteSpace=wrap;html=1;" vertex="1" parent="1">
          <mxGeometry x="457" y="270" width="80" height="25" as="geometry" />
        </mxCell>
        <mxCell id="R9u5_vUlYLdxGOXweft--63" value="start_time" style="ellipse;whiteSpace=wrap;html=1;" vertex="1" parent="1">
          <mxGeometry x="510" y="210" width="80" height="25" as="geometry" />
        </mxCell>
        <mxCell id="R9u5_vUlYLdxGOXweft--64" value="&lt;b&gt;&lt;u&gt;course_id&lt;/u&gt;&lt;/b&gt;" style="ellipse;whiteSpace=wrap;html=1;" vertex="1" parent="1">
          <mxGeometry x="556" y="540" width="80" height="20" as="geometry" />
        </mxCell>
        <mxCell id="R9u5_vUlYLdxGOXweft--65" value="course_id" style="ellipse;whiteSpace=wrap;html=1;" vertex="1" parent="1">
          <mxGeometry x="477" y="140" width="80" height="25" as="geometry" />
        </mxCell>
        <mxCell id="R9u5_vUlYLdxGOXweft--68" value="user_id" style="ellipse;whiteSpace=wrap;html=1;" vertex="1" parent="1">
          <mxGeometry x="-140" y="660" width="70" height="20" as="geometry" />
        </mxCell>
        <mxCell id="R9u5_vUlYLdxGOXweft--69" value="" style="endArrow=none;html=1;rounded=0;exitX=0.5;exitY=0;exitDx=0;exitDy=0;entryX=0.25;entryY=1;entryDx=0;entryDy=0;" edge="1" parent="1" source="R9u5_vUlYLdxGOXweft--68" target="R9u5_vUlYLdxGOXweft--6">
          <mxGeometry width="50" height="50" relative="1" as="geometry">
            <mxPoint x="163.61000000000013" y="465.0000000000001" as="sourcePoint" />
            <mxPoint x="-160" y="595" as="targetPoint" />
            <Array as="points" />
          </mxGeometry>
        </mxCell>
        <mxCell id="R9u5_vUlYLdxGOXweft--70" value="User" style="rounded=0;whiteSpace=wrap;html=1;" vertex="1" parent="1">
          <mxGeometry x="100" y="780" width="100" height="20" as="geometry" />
        </mxCell>
        <mxCell id="R9u5_vUlYLdxGOXweft--71" value="&lt;u&gt;&lt;b&gt;user_id&lt;/b&gt;&lt;/u&gt;" style="ellipse;whiteSpace=wrap;html=1;" vertex="1" parent="1">
          <mxGeometry x="170" y="910" width="70" height="20" as="geometry" />
        </mxCell>
        <mxCell id="R9u5_vUlYLdxGOXweft--72" value="username" style="ellipse;whiteSpace=wrap;html=1;" vertex="1" parent="1">
          <mxGeometry x="190" y="830" width="70" height="20" as="geometry" />
        </mxCell>
        <mxCell id="R9u5_vUlYLdxGOXweft--73" value="password" style="ellipse;whiteSpace=wrap;html=1;" vertex="1" parent="1">
          <mxGeometry x="50" y="825" width="70" height="15" as="geometry" />
        </mxCell>
        <mxCell id="R9u5_vUlYLdxGOXweft--74" value="email" style="ellipse;whiteSpace=wrap;html=1;direction=south;" vertex="1" parent="1">
          <mxGeometry x="80" y="865" width="90" height="15" as="geometry" />
        </mxCell>
        <mxCell id="R9u5_vUlYLdxGOXweft--82" value="" style="endArrow=none;html=1;rounded=0;exitX=0;exitY=0.25;exitDx=0;exitDy=0;" edge="1" parent="1" source="R9u5_vUlYLdxGOXweft--1" target="R9u5_vUlYLdxGOXweft--32">
          <mxGeometry width="50" height="50" relative="1" as="geometry">
            <mxPoint x="170" y="612.5" as="sourcePoint" />
            <mxPoint x="110" y="572.5" as="targetPoint" />
            <Array as="points" />
          </mxGeometry>
        </mxCell>
        <mxCell id="R9u5_vUlYLdxGOXweft--83" value="" style="endArrow=none;html=1;rounded=0;exitX=0;exitY=0.5;exitDx=0;exitDy=0;entryX=1;entryY=0.5;entryDx=0;entryDy=0;" edge="1" parent="1" source="R9u5_vUlYLdxGOXweft--1" target="R9u5_vUlYLdxGOXweft--33">
          <mxGeometry width="50" height="50" relative="1" as="geometry">
            <mxPoint x="170" y="632.5" as="sourcePoint" />
            <mxPoint x="100" y="623.5" as="targetPoint" />
            <Array as="points" />
          </mxGeometry>
        </mxCell>
        <mxCell id="R9u5_vUlYLdxGOXweft--84" value="course_name" style="ellipse;whiteSpace=wrap;html=1;" vertex="1" parent="1">
          <mxGeometry x="710" y="430" width="90" height="15" as="geometry" />
        </mxCell>
        <mxCell id="R9u5_vUlYLdxGOXweft--85" value="lecturer_id" style="ellipse;whiteSpace=wrap;html=1;" vertex="1" parent="1">
          <mxGeometry x="640" y="535" width="70" height="15" as="geometry" />
        </mxCell>
        <mxCell id="R9u5_vUlYLdxGOXweft--87" value="Enrollment&amp;nbsp;" style="shape=associativeEntity;whiteSpace=wrap;html=1;align=center;" vertex="1" parent="1">
          <mxGeometry x="980" y="760" width="140" height="40" as="geometry" />
        </mxCell>
        <mxCell id="R9u5_vUlYLdxGOXweft--89" value="&lt;b&gt;&lt;u&gt;enrollment_id&lt;/u&gt;&lt;/b&gt;" style="ellipse;whiteSpace=wrap;html=1;" vertex="1" parent="1">
          <mxGeometry x="1025" y="830" width="110" height="20" as="geometry" />
        </mxCell>
        <mxCell id="R9u5_vUlYLdxGOXweft--90" value="attendance&amp;nbsp;" style="ellipse;whiteSpace=wrap;html=1;" vertex="1" parent="1">
          <mxGeometry x="1040" y="645" width="70" height="20" as="geometry" />
        </mxCell>
        <mxCell id="R9u5_vUlYLdxGOXweft--91" value="score" style="ellipse;whiteSpace=wrap;html=1;" vertex="1" parent="1">
          <mxGeometry x="920" y="635" width="70" height="20" as="geometry" />
        </mxCell>
        <mxCell id="R9u5_vUlYLdxGOXweft--92" value="lecturer_id" style="ellipse;whiteSpace=wrap;html=1;" vertex="1" parent="1">
          <mxGeometry x="1140" y="820" width="70" height="20" as="geometry" />
        </mxCell>
        <mxCell id="R9u5_vUlYLdxGOXweft--93" value="student_id" style="ellipse;whiteSpace=wrap;html=1;" vertex="1" parent="1">
          <mxGeometry x="1135" y="700" width="70" height="20" as="geometry" />
        </mxCell>
        <mxCell id="R9u5_vUlYLdxGOXweft--97" value="" style="endArrow=none;html=1;rounded=0;entryX=0.422;entryY=0.98;entryDx=0;entryDy=0;exitX=1;exitY=0;exitDx=0;exitDy=0;entryPerimeter=0;" edge="1" parent="1" source="R9u5_vUlYLdxGOXweft--31" target="R9u5_vUlYLdxGOXweft--4">
          <mxGeometry width="50" height="50" relative="1" as="geometry">
            <mxPoint x="563" y="815" as="sourcePoint" />
            <mxPoint x="573" y="785" as="targetPoint" />
            <Array as="points" />
          </mxGeometry>
        </mxCell>
        <mxCell id="R9u5_vUlYLdxGOXweft--105" value="" style="endArrow=none;html=1;rounded=0;exitX=0.617;exitY=0.93;exitDx=0;exitDy=0;exitPerimeter=0;entryX=0.25;entryY=0;entryDx=0;entryDy=0;" edge="1" parent="1" source="R9u5_vUlYLdxGOXweft--91" target="R9u5_vUlYLdxGOXweft--87">
          <mxGeometry width="50" height="50" relative="1" as="geometry">
            <mxPoint x="940" y="735" as="sourcePoint" />
            <mxPoint x="990" y="725" as="targetPoint" />
            <Array as="points" />
          </mxGeometry>
        </mxCell>
        <mxCell id="R9u5_vUlYLdxGOXweft--107" value="" style="endArrow=none;html=1;rounded=0;entryX=0.371;entryY=0.06;entryDx=0;entryDy=0;exitX=0.5;exitY=1;exitDx=0;exitDy=0;entryPerimeter=0;" edge="1" parent="1" source="R9u5_vUlYLdxGOXweft--4" target="R9u5_vUlYLdxGOXweft--35">
          <mxGeometry width="50" height="50" relative="1" as="geometry">
            <mxPoint x="633" y="840" as="sourcePoint" />
            <mxPoint x="670" y="785" as="targetPoint" />
            <Array as="points" />
          </mxGeometry>
        </mxCell>
        <mxCell id="R9u5_vUlYLdxGOXweft--108" value="" style="endArrow=none;html=1;rounded=0;entryX=0;entryY=0.75;entryDx=0;entryDy=0;exitX=1;exitY=0.5;exitDx=0;exitDy=0;endFill=0;startFill=0;startArrow=ERmany;" edge="1" parent="1" source="R9u5_vUlYLdxGOXweft--4" target="R9u5_vUlYLdxGOXweft--87">
          <mxGeometry width="50" height="50" relative="1" as="geometry">
            <mxPoint x="929.5" y="565" as="sourcePoint" />
            <mxPoint x="930" y="535" as="targetPoint" />
            <Array as="points" />
          </mxGeometry>
        </mxCell>
        <mxCell id="R9u5_vUlYLdxGOXweft--110" value="" style="endArrow=none;html=1;rounded=0;entryX=0.25;entryY=0;entryDx=0;entryDy=0;" edge="1" parent="1" target="R9u5_vUlYLdxGOXweft--87">
          <mxGeometry width="50" height="50" relative="1" as="geometry">
            <mxPoint x="1070" y="665" as="sourcePoint" />
            <mxPoint x="950" y="801" as="targetPoint" />
            <Array as="points" />
          </mxGeometry>
        </mxCell>
        <mxCell id="R9u5_vUlYLdxGOXweft--111" value="" style="endArrow=none;html=1;rounded=0;entryX=0.5;entryY=0;entryDx=0;entryDy=0;exitX=1;exitY=0.5;exitDx=0;exitDy=0;" edge="1" parent="1" source="R9u5_vUlYLdxGOXweft--87" target="R9u5_vUlYLdxGOXweft--92">
          <mxGeometry width="50" height="50" relative="1" as="geometry">
            <mxPoint x="1105.5" y="785" as="sourcePoint" />
            <mxPoint x="1154.5" y="758" as="targetPoint" />
            <Array as="points" />
          </mxGeometry>
        </mxCell>
        <mxCell id="R9u5_vUlYLdxGOXweft--115" value="" style="endArrow=none;html=1;rounded=0;entryX=0.4;entryY=0.92;entryDx=0;entryDy=0;entryPerimeter=0;exitX=0.84;exitY=-0.068;exitDx=0;exitDy=0;exitPerimeter=0;" edge="1" parent="1" source="R9u5_vUlYLdxGOXweft--87" target="R9u5_vUlYLdxGOXweft--93">
          <mxGeometry width="50" height="50" relative="1" as="geometry">
            <mxPoint x="1100" y="730" as="sourcePoint" />
            <mxPoint x="1140" y="751" as="targetPoint" />
            <Array as="points" />
          </mxGeometry>
        </mxCell>
        <mxCell id="R9u5_vUlYLdxGOXweft--122" value="" style="endArrow=none;html=1;rounded=0;exitX=0.128;exitY=0.321;exitDx=0;exitDy=0;exitPerimeter=0;" edge="1" parent="1" source="R9u5_vUlYLdxGOXweft--74">
          <mxGeometry width="50" height="50" relative="1" as="geometry">
            <mxPoint x="140" y="860" as="sourcePoint" />
            <mxPoint x="140" y="800" as="targetPoint" />
            <Array as="points" />
          </mxGeometry>
        </mxCell>
        <mxCell id="R9u5_vUlYLdxGOXweft--123" value="" style="endArrow=none;html=1;rounded=0;exitX=0.5;exitY=0;exitDx=0;exitDy=0;" edge="1" parent="1" source="R9u5_vUlYLdxGOXweft--71">
          <mxGeometry width="50" height="50" relative="1" as="geometry">
            <mxPoint x="200" y="900" as="sourcePoint" />
            <mxPoint x="140" y="800" as="targetPoint" />
            <Array as="points" />
          </mxGeometry>
        </mxCell>
        <mxCell id="R9u5_vUlYLdxGOXweft--124" value="" style="endArrow=none;html=1;rounded=0;exitX=0;exitY=0.75;exitDx=0;exitDy=0;entryX=0.5;entryY=1;entryDx=0;entryDy=0;startArrow=ERone;startFill=0;" edge="1" parent="1" source="R9u5_vUlYLdxGOXweft--70" target="R9u5_vUlYLdxGOXweft--26">
          <mxGeometry width="50" height="50" relative="1" as="geometry">
            <mxPoint x="238" y="710" as="sourcePoint" />
            <mxPoint x="180" y="610" as="targetPoint" />
          </mxGeometry>
        </mxCell>
        <mxCell id="R9u5_vUlYLdxGOXweft--125" value="" style="endArrow=none;html=1;rounded=0;exitX=0.5;exitY=0;exitDx=0;exitDy=0;" edge="1" parent="1" source="R9u5_vUlYLdxGOXweft--72">
          <mxGeometry width="50" height="50" relative="1" as="geometry">
            <mxPoint x="160" y="840" as="sourcePoint" />
            <mxPoint x="170" y="800" as="targetPoint" />
            <Array as="points" />
          </mxGeometry>
        </mxCell>
        <mxCell id="R9u5_vUlYLdxGOXweft--126" value="" style="endArrow=none;html=1;rounded=0;exitX=0.5;exitY=0;exitDx=0;exitDy=0;" edge="1" parent="1" source="R9u5_vUlYLdxGOXweft--73">
          <mxGeometry width="50" height="50" relative="1" as="geometry">
            <mxPoint x="120" y="825" as="sourcePoint" />
            <mxPoint x="105" y="800" as="targetPoint" />
            <Array as="points" />
          </mxGeometry>
        </mxCell>
        <mxCell id="R9u5_vUlYLdxGOXweft--127" value="is&amp;nbsp; a" style="rhombus;whiteSpace=wrap;html=1;" vertex="1" parent="1">
          <mxGeometry x="290" y="780" width="65" height="20" as="geometry" />
        </mxCell>
        <mxCell id="R9u5_vUlYLdxGOXweft--128" value="" style="endArrow=none;html=1;rounded=0;exitX=1;exitY=0.5;exitDx=0;exitDy=0;endFill=1;startFill=0;startArrow=ERone;" edge="1" parent="1" source="R9u5_vUlYLdxGOXweft--70">
          <mxGeometry width="50" height="50" relative="1" as="geometry">
            <mxPoint x="210" y="790" as="sourcePoint" />
            <mxPoint x="290" y="790" as="targetPoint" />
          </mxGeometry>
        </mxCell>
        <mxCell id="R9u5_vUlYLdxGOXweft--53" value="creates" style="rhombus;whiteSpace=wrap;html=1;" vertex="1" parent="1">
          <mxGeometry x="430" y="467.5" width="80" height="30" as="geometry" />
        </mxCell>
        <mxCell id="R9u5_vUlYLdxGOXweft--132" value="" style="endArrow=ERone;html=1;rounded=0;exitX=0.5;exitY=0;exitDx=0;exitDy=0;entryX=0.595;entryY=1.06;entryDx=0;entryDy=0;entryPerimeter=0;endFill=0;" edge="1" parent="1" source="R9u5_vUlYLdxGOXweft--127" target="R9u5_vUlYLdxGOXweft--1">
          <mxGeometry width="50" height="50" relative="1" as="geometry">
            <mxPoint x="350" y="549.5" as="sourcePoint" />
            <mxPoint x="420" y="500" as="targetPoint" />
          </mxGeometry>
        </mxCell>
        <mxCell id="R9u5_vUlYLdxGOXweft--134" value="" style="endArrow=none;html=1;rounded=0;entryX=0.703;entryY=0;entryDx=0;entryDy=0;entryPerimeter=0;" edge="1" parent="1" target="R9u5_vUlYLdxGOXweft--85">
          <mxGeometry width="50" height="50" relative="1" as="geometry">
            <mxPoint x="690" y="500" as="sourcePoint" />
            <mxPoint x="680" y="520" as="targetPoint" />
            <Array as="points" />
          </mxGeometry>
        </mxCell>
        <mxCell id="R9u5_vUlYLdxGOXweft--135" value="" style="endArrow=none;html=1;rounded=0;exitX=0.444;exitY=0.667;exitDx=0;exitDy=0;exitPerimeter=0;" edge="1" parent="1" source="R9u5_vUlYLdxGOXweft--84">
          <mxGeometry width="50" height="50" relative="1" as="geometry">
            <mxPoint x="750" y="450" as="sourcePoint" />
            <mxPoint x="740" y="470" as="targetPoint" />
            <Array as="points">
              <mxPoint x="740" y="470" />
            </Array>
          </mxGeometry>
        </mxCell>
        <mxCell id="R9u5_vUlYLdxGOXweft--136" value="" style="endArrow=none;html=1;rounded=0;exitX=0.5;exitY=0;exitDx=0;exitDy=0;" edge="1" parent="1" source="R9u5_vUlYLdxGOXweft--64">
          <mxGeometry width="50" height="50" relative="1" as="geometry">
            <mxPoint x="676" y="515.5500000000002" as="sourcePoint" />
            <mxPoint x="652" y="498" as="targetPoint" />
            <Array as="points" />
          </mxGeometry>
        </mxCell>
        <mxCell id="R9u5_vUlYLdxGOXweft--137" value="type" style="ellipse;whiteSpace=wrap;html=1;" vertex="1" parent="1">
          <mxGeometry x="417" y="235" width="80" height="25" as="geometry" />
        </mxCell>
        <mxCell id="R9u5_vUlYLdxGOXweft--138" value="course_id" style="ellipse;whiteSpace=wrap;html=1;" vertex="1" parent="1">
          <mxGeometry x="537" y="295" width="80" height="25" as="geometry" />
        </mxCell>
        <mxCell id="R9u5_vUlYLdxGOXweft--139" value="&lt;b&gt;&lt;u&gt;activiity_id&lt;/u&gt;&lt;/b&gt;" style="ellipse;whiteSpace=wrap;html=1;" vertex="1" parent="1">
          <mxGeometry x="630" y="150" width="80" height="25" as="geometry" />
        </mxCell>
        <mxCell id="R9u5_vUlYLdxGOXweft--143" value="" style="endArrow=none;html=1;rounded=0;entryX=0.654;entryY=1.147;entryDx=0;entryDy=0;entryPerimeter=0;exitX=0.5;exitY=0;exitDx=0;exitDy=0;" edge="1" parent="1" source="R9u5_vUlYLdxGOXweft--138">
          <mxGeometry width="50" height="50" relative="1" as="geometry">
            <mxPoint x="577" y="290" as="sourcePoint" />
            <mxPoint x="636" y="260" as="targetPoint" />
            <Array as="points" />
          </mxGeometry>
        </mxCell>
        <mxCell id="R9u5_vUlYLdxGOXweft--144" value="" style="endArrow=none;html=1;rounded=0;exitX=0.5;exitY=0;exitDx=0;exitDy=0;" edge="1" parent="1">
          <mxGeometry width="50" height="50" relative="1" as="geometry">
            <mxPoint x="667" y="220" as="sourcePoint" />
            <mxPoint x="667" y="180" as="targetPoint" />
            <Array as="points" />
          </mxGeometry>
        </mxCell>
        <mxCell id="R9u5_vUlYLdxGOXweft--145" value="" style="endArrow=none;html=1;rounded=0;entryX=1;entryY=1;entryDx=0;entryDy=0;exitX=0.25;exitY=0;exitDx=0;exitDy=0;" edge="1" parent="1" source="R9u5_vUlYLdxGOXweft--5" target="R9u5_vUlYLdxGOXweft--65">
          <mxGeometry width="50" height="50" relative="1" as="geometry">
            <mxPoint x="627" y="210" as="sourcePoint" />
            <mxPoint x="557" y="150" as="targetPoint" />
            <Array as="points" />
          </mxGeometry>
        </mxCell>
        <mxCell id="R9u5_vUlYLdxGOXweft--147" value="" style="endArrow=none;html=1;rounded=0;exitX=0.5;exitY=0;exitDx=0;exitDy=0;" edge="1" parent="1">
          <mxGeometry width="50" height="50" relative="1" as="geometry">
            <mxPoint x="531" y="275" as="sourcePoint" />
            <mxPoint x="607" y="240" as="targetPoint" />
            <Array as="points" />
          </mxGeometry>
        </mxCell>
        <mxCell id="R9u5_vUlYLdxGOXweft--148" value="" style="endArrow=none;html=1;rounded=0;exitX=1;exitY=0.5;exitDx=0;exitDy=0;entryX=0;entryY=0.5;entryDx=0;entryDy=0;" edge="1" parent="1" source="R9u5_vUlYLdxGOXweft--137" target="R9u5_vUlYLdxGOXweft--5">
          <mxGeometry width="50" height="50" relative="1" as="geometry">
            <mxPoint x="495.66999999999996" y="260" as="sourcePoint" />
            <mxPoint x="495.66999999999996" y="220" as="targetPoint" />
            <Array as="points" />
          </mxGeometry>
        </mxCell>
        <mxCell id="R9u5_vUlYLdxGOXweft--149" value="" style="endArrow=none;html=1;rounded=0;entryX=1;entryY=0.5;entryDx=0;entryDy=0;" edge="1" parent="1" target="R9u5_vUlYLdxGOXweft--63">
          <mxGeometry width="50" height="50" relative="1" as="geometry">
            <mxPoint x="607" y="230" as="sourcePoint" />
            <mxPoint x="590" y="210" as="targetPoint" />
            <Array as="points" />
          </mxGeometry>
        </mxCell>
        <mxCell id="R9u5_vUlYLdxGOXweft--152" value="Question Content" style="rounded=0;whiteSpace=wrap;html=1;" vertex="1" parent="1">
          <mxGeometry x="970" y="215" width="120" height="40" as="geometry" />
        </mxCell>
        <mxCell id="R9u5_vUlYLdxGOXweft--153" value="activity_id" style="ellipse;whiteSpace=wrap;html=1;" vertex="1" parent="1">
          <mxGeometry x="1040" y="120" width="80" height="25" as="geometry" />
        </mxCell>
        <mxCell id="R9u5_vUlYLdxGOXweft--154" value="&lt;b&gt;&lt;u&gt;question_id&lt;/u&gt;&lt;/b&gt;" style="ellipse;whiteSpace=wrap;html=1;" vertex="1" parent="1">
          <mxGeometry x="920" y="140" width="80" height="25" as="geometry" />
        </mxCell>
        <mxCell id="R9u5_vUlYLdxGOXweft--155" value="question_text" style="ellipse;whiteSpace=wrap;html=1;" vertex="1" parent="1">
          <mxGeometry x="1070" y="155" width="80" height="25" as="geometry" />
        </mxCell>
        <mxCell id="R9u5_vUlYLdxGOXweft--156" value="correct_answer" style="ellipse;whiteSpace=wrap;html=1;" vertex="1" parent="1">
          <mxGeometry x="940" y="80" width="100" height="25" as="geometry" />
        </mxCell>
        <mxCell id="R9u5_vUlYLdxGOXweft--157" value="" style="endArrow=none;html=1;rounded=0;entryX=0.691;entryY=1.005;entryDx=0;entryDy=0;entryPerimeter=0;exitX=0.344;exitY=-0.027;exitDx=0;exitDy=0;exitPerimeter=0;" edge="1" parent="1" source="R9u5_vUlYLdxGOXweft--152" target="R9u5_vUlYLdxGOXweft--156">
          <mxGeometry width="50" height="50" relative="1" as="geometry">
            <mxPoint x="1010" y="210" as="sourcePoint" />
            <mxPoint x="1010" y="110" as="targetPoint" />
            <Array as="points" />
          </mxGeometry>
        </mxCell>
        <mxCell id="R9u5_vUlYLdxGOXweft--158" value="" style="endArrow=none;html=1;rounded=0;exitX=0.5;exitY=0;exitDx=0;exitDy=0;entryX=0;entryY=1;entryDx=0;entryDy=0;" edge="1" parent="1" source="R9u5_vUlYLdxGOXweft--152" target="R9u5_vUlYLdxGOXweft--153">
          <mxGeometry width="50" height="50" relative="1" as="geometry">
            <mxPoint x="1070" y="240" as="sourcePoint" />
            <mxPoint x="1080" y="150" as="targetPoint" />
            <Array as="points" />
          </mxGeometry>
        </mxCell>
        <mxCell id="R9u5_vUlYLdxGOXweft--164" value="" style="endArrow=none;html=1;rounded=0;exitX=0.75;exitY=0;exitDx=0;exitDy=0;entryX=0;entryY=1;entryDx=0;entryDy=0;" edge="1" parent="1" source="R9u5_vUlYLdxGOXweft--152" target="R9u5_vUlYLdxGOXweft--155">
          <mxGeometry width="50" height="50" relative="1" as="geometry">
            <mxPoint x="1050" y="250" as="sourcePoint" />
            <mxPoint x="1100" y="185" as="targetPoint" />
            <Array as="points" />
          </mxGeometry>
        </mxCell>
        <mxCell id="R9u5_vUlYLdxGOXweft--167" value="" style="endArrow=none;html=1;rounded=0;entryX=0.5;entryY=1;entryDx=0;entryDy=0;exitX=0.25;exitY=0;exitDx=0;exitDy=0;" edge="1" parent="1" source="R9u5_vUlYLdxGOXweft--152" target="R9u5_vUlYLdxGOXweft--154">
          <mxGeometry width="50" height="50" relative="1" as="geometry">
            <mxPoint x="990" y="210" as="sourcePoint" />
            <mxPoint x="959" y="155" as="targetPoint" />
            <Array as="points" />
          </mxGeometry>
        </mxCell>
        <mxCell id="R9u5_vUlYLdxGOXweft--168" value="has" style="rhombus;whiteSpace=wrap;html=1;" vertex="1" parent="1">
          <mxGeometry x="633" y="350" width="80" height="30" as="geometry" />
        </mxCell>
        <mxCell id="R9u5_vUlYLdxGOXweft--169" value="" style="endArrow=none;html=1;rounded=0;entryX=0.5;entryY=1;entryDx=0;entryDy=0;startArrow=ERone;startFill=0;" edge="1" parent="1" target="R9u5_vUlYLdxGOXweft--168">
          <mxGeometry width="50" height="50" relative="1" as="geometry">
            <mxPoint x="680" y="468" as="sourcePoint" />
            <mxPoint x="720.3299999999999" y="334" as="targetPoint" />
          </mxGeometry>
        </mxCell>
        <mxCell id="R9u5_vUlYLdxGOXweft--170" value="" style="endArrow=ERmany;html=1;rounded=0;exitX=0.5;exitY=0;exitDx=0;exitDy=0;entryX=0.5;entryY=1;entryDx=0;entryDy=0;endFill=0;" edge="1" parent="1" source="R9u5_vUlYLdxGOXweft--168" target="R9u5_vUlYLdxGOXweft--5">
          <mxGeometry width="50" height="50" relative="1" as="geometry">
            <mxPoint x="716.33" y="274" as="sourcePoint" />
            <mxPoint x="720" y="230" as="targetPoint" />
          </mxGeometry>
        </mxCell>
        <mxCell id="R9u5_vUlYLdxGOXweft--171" value="has" style="rhombus;whiteSpace=wrap;html=1;" vertex="1" parent="1">
          <mxGeometry x="770" y="225" width="50" height="30" as="geometry" />
        </mxCell>
        <mxCell id="R9u5_vUlYLdxGOXweft--175" value="" style="endArrow=ERone;html=1;rounded=0;exitX=0;exitY=0.5;exitDx=0;exitDy=0;entryX=1;entryY=0.5;entryDx=0;entryDy=0;startArrow=none;startFill=0;endFill=0;" edge="1" parent="1" source="R9u5_vUlYLdxGOXweft--171" target="R9u5_vUlYLdxGOXweft--5">
          <mxGeometry width="50" height="50" relative="1" as="geometry">
            <mxPoint x="790" y="240" as="sourcePoint" />
            <mxPoint x="791" y="160" as="targetPoint" />
          </mxGeometry>
        </mxCell>
        <mxCell id="R9u5_vUlYLdxGOXweft--176" value="" style="endArrow=none;html=1;rounded=0;entryX=1;entryY=0.5;entryDx=0;entryDy=0;startArrow=ERmany;startFill=0;exitX=0;exitY=0.5;exitDx=0;exitDy=0;" edge="1" parent="1" source="R9u5_vUlYLdxGOXweft--152" target="R9u5_vUlYLdxGOXweft--171">
          <mxGeometry width="50" height="50" relative="1" as="geometry">
            <mxPoint x="960" y="199.33" as="sourcePoint" />
            <mxPoint x="910" y="199.33" as="targetPoint" />
          </mxGeometry>
        </mxCell>
        <mxCell id="R9u5_vUlYLdxGOXweft--178" value="Response" style="shape=associativeEntity;whiteSpace=wrap;html=1;align=center;" vertex="1" parent="1">
          <mxGeometry x="980" y="417.5" width="140" height="40" as="geometry" />
        </mxCell>
        <mxCell id="R9u5_vUlYLdxGOXweft--187" value="student_id" style="ellipse;whiteSpace=wrap;html=1;" vertex="1" parent="1">
          <mxGeometry x="1035" y="485" width="100" height="25" as="geometry" />
        </mxCell>
        <mxCell id="R9u5_vUlYLdxGOXweft--188" value="response_id" style="ellipse;whiteSpace=wrap;html=1;" vertex="1" parent="1">
          <mxGeometry x="870" y="390" width="100" height="25" as="geometry" />
        </mxCell>
        <mxCell id="R9u5_vUlYLdxGOXweft--189" value="question_id" style="ellipse;whiteSpace=wrap;html=1;" vertex="1" parent="1">
          <mxGeometry x="1080" y="365" width="100" height="25" as="geometry" />
        </mxCell>
        <mxCell id="R9u5_vUlYLdxGOXweft--190" value="submission_time" style="ellipse;whiteSpace=wrap;html=1;" vertex="1" parent="1">
          <mxGeometry x="1190" y="450" width="100" height="25" as="geometry" />
        </mxCell>
        <mxCell id="R9u5_vUlYLdxGOXweft--191" value="answer_chosen" style="ellipse;whiteSpace=wrap;html=1;" vertex="1" parent="1">
          <mxGeometry x="1150" y="415" width="100" height="25" as="geometry" />
        </mxCell>
        <mxCell id="R9u5_vUlYLdxGOXweft--192" value="" style="endArrow=none;html=1;rounded=0;exitX=0.75;exitY=0;exitDx=0;exitDy=0;entryX=0;entryY=1;entryDx=0;entryDy=0;" edge="1" parent="1" target="R9u5_vUlYLdxGOXweft--191">
          <mxGeometry width="50" height="50" relative="1" as="geometry">
            <mxPoint x="1120" y="444" as="sourcePoint" />
            <mxPoint x="1140" y="405" as="targetPoint" />
            <Array as="points" />
          </mxGeometry>
        </mxCell>
        <mxCell id="R9u5_vUlYLdxGOXweft--193" value="" style="endArrow=none;html=1;rounded=0;exitX=1;exitY=0.75;exitDx=0;exitDy=0;entryX=0;entryY=0.5;entryDx=0;entryDy=0;" edge="1" parent="1" source="R9u5_vUlYLdxGOXweft--178" target="R9u5_vUlYLdxGOXweft--190">
          <mxGeometry width="50" height="50" relative="1" as="geometry">
            <mxPoint x="1135" y="457.5" as="sourcePoint" />
            <mxPoint x="1178" y="449.5" as="targetPoint" />
            <Array as="points" />
          </mxGeometry>
        </mxCell>
        <mxCell id="R9u5_vUlYLdxGOXweft--194" value="" style="endArrow=none;html=1;rounded=0;exitX=1;exitY=0.75;exitDx=0;exitDy=0;entryX=0.5;entryY=0;entryDx=0;entryDy=0;" edge="1" parent="1" target="R9u5_vUlYLdxGOXweft--187">
          <mxGeometry width="50" height="50" relative="1" as="geometry">
            <mxPoint x="1050" y="457.5" as="sourcePoint" />
            <mxPoint x="1120" y="472.5" as="targetPoint" />
            <Array as="points" />
          </mxGeometry>
        </mxCell>
        <mxCell id="R9u5_vUlYLdxGOXweft--195" value="" style="endArrow=none;html=1;rounded=0;exitX=1;exitY=0.75;exitDx=0;exitDy=0;" edge="1" parent="1">
          <mxGeometry width="50" height="50" relative="1" as="geometry">
            <mxPoint x="942.5" y="413.75" as="sourcePoint" />
            <mxPoint x="978" y="430" as="targetPoint" />
            <Array as="points" />
          </mxGeometry>
        </mxCell>
        <mxCell id="R9u5_vUlYLdxGOXweft--196" value="" style="endArrow=none;html=1;rounded=0;exitX=0.5;exitY=1;exitDx=0;exitDy=0;" edge="1" parent="1" source="R9u5_vUlYLdxGOXweft--189">
          <mxGeometry width="50" height="50" relative="1" as="geometry">
            <mxPoint x="1074.5" y="398.75" as="sourcePoint" />
            <mxPoint x="1070" y="415" as="targetPoint" />
            <Array as="points" />
          </mxGeometry>
        </mxCell>
        <mxCell id="R9u5_vUlYLdxGOXweft--197" value="" style="endArrow=none;html=1;rounded=0;exitX=0.42;exitY=-0.004;exitDx=0;exitDy=0;exitPerimeter=0;startArrow=ERmany;startFill=0;" edge="1" parent="1" source="R9u5_vUlYLdxGOXweft--4">
          <mxGeometry width="50" height="50" relative="1" as="geometry">
            <mxPoint x="980" y="728" as="sourcePoint" />
            <mxPoint x="988" y="460" as="targetPoint" />
          </mxGeometry>
        </mxCell>
        <mxCell id="R9u5_vUlYLdxGOXweft--198" value="" style="endArrow=ERmany;html=1;rounded=0;entryX=0.587;entryY=1.014;entryDx=0;entryDy=0;exitX=0.429;exitY=0.063;exitDx=0;exitDy=0;exitPerimeter=0;entryPerimeter=0;endFill=0;" edge="1" parent="1" source="R9u5_vUlYLdxGOXweft--178" target="R9u5_vUlYLdxGOXweft--152">
          <mxGeometry width="50" height="50" relative="1" as="geometry">
            <mxPoint x="1025" y="410" as="sourcePoint" />
            <mxPoint x="1025" y="255" as="targetPoint" />
          </mxGeometry>
        </mxCell>
        <mxCell id="R9u5_vUlYLdxGOXweft--199" value="" style="endArrow=ERmany;html=1;rounded=0;exitX=0.121;exitY=-0.025;exitDx=0;exitDy=0;exitPerimeter=0;endFill=0;entryX=0.75;entryY=1;entryDx=0;entryDy=0;" edge="1" parent="1" source="R9u5_vUlYLdxGOXweft--87" target="R9u5_vUlYLdxGOXweft--3">
          <mxGeometry width="50" height="50" relative="1" as="geometry">
            <mxPoint x="365" y="807.5" as="sourcePoint" />
            <mxPoint x="770" y="550" as="targetPoint" />
          </mxGeometry>
        </mxCell>
      </root>
    </mxGraphModel>
  </diagram>
</mxfile>
